<mxfile host="app.diagrams.net" agent="Mozilla/5.0 (Windows NT 10.0; Win64; x64) AppleWebKit/537.36 (KHTML, like Gecko) Chrome/135.0.0.0 Safari/537.36" version="26.2.14">
  <diagram name="第 1 页" id="8R8MBYFiWoiIIkuwGuT9">
    <mxGraphModel dx="1226" dy="701" grid="1" gridSize="10" guides="1" tooltips="1" connect="1" arrows="1" fold="1" page="1" pageScale="1" pageWidth="1169" pageHeight="827" math="0" shadow="0">
      <root>
        <mxCell id="0" />
        <mxCell id="1" parent="0" />
        <mxCell id="DyRN6awaiInAAi_LsgXG-5" style="edgeStyle=orthogonalEdgeStyle;rounded=0;orthogonalLoop=1;jettySize=auto;html=1;exitX=0.25;exitY=1;exitDx=0;exitDy=0;entryX=0.25;entryY=0;entryDx=0;entryDy=0;fontFamily=宋体;fontSize=14;fontColor=default;" edge="1" parent="1" source="DyRN6awaiInAAi_LsgXG-1" target="DyRN6awaiInAAi_LsgXG-2">
          <mxGeometry relative="1" as="geometry" />
        </mxCell>
        <mxCell id="DyRN6awaiInAAi_LsgXG-1" value="前端" style="rounded=0;whiteSpace=wrap;html=1;fontSize=14;fontFamily=宋体;" vertex="1" parent="1">
          <mxGeometry x="110" y="80" width="230" height="30" as="geometry" />
        </mxCell>
        <mxCell id="DyRN6awaiInAAi_LsgXG-7" style="edgeStyle=orthogonalEdgeStyle;rounded=0;orthogonalLoop=1;jettySize=auto;html=1;exitX=0.75;exitY=0;exitDx=0;exitDy=0;entryX=0.75;entryY=1;entryDx=0;entryDy=0;fontFamily=宋体;fontSize=14;fontColor=default;" edge="1" parent="1" source="DyRN6awaiInAAi_LsgXG-2" target="DyRN6awaiInAAi_LsgXG-1">
          <mxGeometry relative="1" as="geometry" />
        </mxCell>
        <mxCell id="DyRN6awaiInAAi_LsgXG-11" style="edgeStyle=orthogonalEdgeStyle;rounded=0;orthogonalLoop=1;jettySize=auto;html=1;exitX=0.25;exitY=1;exitDx=0;exitDy=0;entryX=0.25;entryY=0;entryDx=0;entryDy=0;fontFamily=宋体;fontSize=14;fontColor=default;" edge="1" parent="1" source="DyRN6awaiInAAi_LsgXG-2" target="DyRN6awaiInAAi_LsgXG-9">
          <mxGeometry relative="1" as="geometry" />
        </mxCell>
        <mxCell id="DyRN6awaiInAAi_LsgXG-2" value="控制器 Controller" style="rounded=0;whiteSpace=wrap;html=1;strokeColor=default;align=center;verticalAlign=middle;fontFamily=宋体;fontSize=14;fontColor=default;fillColor=default;" vertex="1" parent="1">
          <mxGeometry x="110" y="168" width="230" height="30" as="geometry" />
        </mxCell>
        <mxCell id="DyRN6awaiInAAi_LsgXG-3" value="交互层" style="rounded=0;whiteSpace=wrap;html=1;strokeColor=default;align=center;verticalAlign=middle;fontFamily=宋体;fontSize=14;fontColor=default;fillColor=default;" vertex="1" parent="1">
          <mxGeometry x="360" y="120" width="60" height="30" as="geometry" />
        </mxCell>
        <mxCell id="DyRN6awaiInAAi_LsgXG-6" value="统一封装&lt;div&gt;&lt;span style=&quot;background-color: transparent; color: light-dark(rgb(0, 0, 0), rgb(255, 255, 255));&quot;&gt;请求&lt;/span&gt;&lt;/div&gt;" style="text;html=1;align=center;verticalAlign=middle;whiteSpace=wrap;rounded=0;fontFamily=宋体;fontSize=14;fontColor=default;" vertex="1" parent="1">
          <mxGeometry x="100" y="125" width="60" height="30" as="geometry" />
        </mxCell>
        <mxCell id="DyRN6awaiInAAi_LsgXG-8" value="统一封装响应" style="text;html=1;align=center;verticalAlign=middle;whiteSpace=wrap;rounded=0;fontFamily=宋体;fontSize=14;fontColor=default;" vertex="1" parent="1">
          <mxGeometry x="290" y="127" width="60" height="30" as="geometry" />
        </mxCell>
        <mxCell id="DyRN6awaiInAAi_LsgXG-12" style="edgeStyle=orthogonalEdgeStyle;rounded=0;orthogonalLoop=1;jettySize=auto;html=1;exitX=0.75;exitY=0;exitDx=0;exitDy=0;entryX=0.75;entryY=1;entryDx=0;entryDy=0;fontFamily=宋体;fontSize=14;fontColor=default;" edge="1" parent="1" source="DyRN6awaiInAAi_LsgXG-9" target="DyRN6awaiInAAi_LsgXG-2">
          <mxGeometry relative="1" as="geometry" />
        </mxCell>
        <mxCell id="DyRN6awaiInAAi_LsgXG-9" value="服务层 Service" style="rounded=0;whiteSpace=wrap;html=1;strokeColor=default;align=center;verticalAlign=middle;fontFamily=宋体;fontSize=14;fontColor=default;fillColor=default;" vertex="1" parent="1">
          <mxGeometry x="110" y="223" width="230" height="30" as="geometry" />
        </mxCell>
        <mxCell id="DyRN6awaiInAAi_LsgXG-15" value="业务层" style="rounded=0;whiteSpace=wrap;html=1;strokeColor=default;align=center;verticalAlign=middle;fontFamily=宋体;fontSize=14;fontColor=default;fillColor=default;" vertex="1" parent="1">
          <mxGeometry x="360" y="171" width="60" height="82" as="geometry" />
        </mxCell>
      </root>
    </mxGraphModel>
  </diagram>
</mxfile>
